<mxfile host="65bd71144e">
    <diagram id="6lXaKVQ5D4E6N2LliLoX" name="Page-1">
        <mxGraphModel dx="5192" dy="2684" grid="0" gridSize="10" guides="1" tooltips="1" connect="1" arrows="1" fold="1" page="0" pageScale="1" pageWidth="850" pageHeight="1100" background="#ffffff" math="0" shadow="0">
            <root>
                <mxCell id="0"/>
                <mxCell id="1" parent="0"/>
                <mxCell id="2" value="" style="rounded=1;whiteSpace=wrap;html=1;" parent="1" vertex="1">
                    <mxGeometry x="34" y="22" width="519" height="287" as="geometry"/>
                </mxCell>
                <mxCell id="3" value="" style="rounded=1;whiteSpace=wrap;html=1;" parent="1" vertex="1">
                    <mxGeometry x="80" y="59" width="426" height="215" as="geometry"/>
                </mxCell>
                <mxCell id="4" value="" style="rounded=1;whiteSpace=wrap;html=1;" parent="1" vertex="1">
                    <mxGeometry x="125" y="100" width="332" height="133" as="geometry"/>
                </mxCell>
                <mxCell id="5" value="" style="rounded=1;whiteSpace=wrap;html=1;" parent="1" vertex="1">
                    <mxGeometry x="226" y="135.25" width="124" height="60.5" as="geometry"/>
                </mxCell>
                <mxCell id="6" value="Inner Child Component" style="text;strokeColor=none;fillColor=none;html=1;align=center;verticalAlign=middle;whiteSpace=wrap;rounded=0;" parent="1" vertex="1">
                    <mxGeometry x="241" y="152.75" width="94" height="25.5" as="geometry"/>
                </mxCell>
                <mxCell id="7" value="Inner Child Component" style="text;strokeColor=none;fillColor=none;html=1;align=center;verticalAlign=middle;whiteSpace=wrap;rounded=0;" parent="1" vertex="1">
                    <mxGeometry x="141" y="116" width="94" height="25.5" as="geometry"/>
                </mxCell>
                <mxCell id="8" value="Inner Child Component" style="text;strokeColor=none;fillColor=none;html=1;align=center;verticalAlign=middle;whiteSpace=wrap;rounded=0;" parent="1" vertex="1">
                    <mxGeometry x="97" y="67" width="94" height="25.5" as="geometry"/>
                </mxCell>
                <mxCell id="9" value="parent" style="text;strokeColor=none;fillColor=none;html=1;align=center;verticalAlign=middle;whiteSpace=wrap;rounded=0;" parent="1" vertex="1">
                    <mxGeometry x="60" y="26" width="60" height="30" as="geometry"/>
                </mxCell>
                <mxCell id="10" value="&lt;font style=&quot;font-size: 16px;&quot;&gt;while before Context Api we were using props to pass values from one components to another , but the main issues with it taht for nested components we have to pass props multiple time from parent -&amp;gt; inner child 1 -&amp;gt; inner child 2 -&amp;gt; inner child 3&amp;nbsp; , by this way we were passing the props to most inner components that is not a effective and consise way, this is also called props drilling.&lt;br&gt;To resolve this issue the context api is came in use where we were creating a global context using createContext , useContext , contextProvider by which we can wrappper the components into context provider and avoided to passing pros again and again&amp;nbsp;&lt;/font&gt;" style="text;strokeColor=none;fillColor=none;html=1;align=center;verticalAlign=middle;whiteSpace=wrap;rounded=0;" parent="1" vertex="1">
                    <mxGeometry x="-51" y="337" width="716" height="176" as="geometry"/>
                </mxCell>
                <mxCell id="11" value="" style="edgeStyle=none;orthogonalLoop=1;jettySize=auto;html=1;rounded=0;fontSize=16;endArrow=open;startSize=14;endSize=14;sourcePerimeterSpacing=8;targetPerimeterSpacing=8;curved=1;entryX=1;entryY=0;entryDx=0;entryDy=0;" parent="1" target="8" edge="1">
                    <mxGeometry width="140" relative="1" as="geometry">
                        <mxPoint x="93" y="22" as="sourcePoint"/>
                        <mxPoint x="233" y="22" as="targetPoint"/>
                        <Array as="points">
                            <mxPoint x="175" y="-78"/>
                        </Array>
                    </mxGeometry>
                </mxCell>
                <mxCell id="12" value="" style="edgeStyle=none;orthogonalLoop=1;jettySize=auto;html=1;rounded=0;fontSize=16;endArrow=open;startSize=14;endSize=14;sourcePerimeterSpacing=8;targetPerimeterSpacing=8;curved=1;entryX=0.664;entryY=-0.021;entryDx=0;entryDy=0;entryPerimeter=0;" parent="1" target="4" edge="1">
                    <mxGeometry width="140" relative="1" as="geometry">
                        <mxPoint x="261" y="59" as="sourcePoint"/>
                        <mxPoint x="401" y="59" as="targetPoint"/>
                        <Array as="points">
                            <mxPoint x="341" y="-15"/>
                        </Array>
                    </mxGeometry>
                </mxCell>
                <mxCell id="13" value="" style="edgeStyle=none;orthogonalLoop=1;jettySize=auto;html=1;rounded=0;fontSize=16;endArrow=open;startSize=14;endSize=14;sourcePerimeterSpacing=8;targetPerimeterSpacing=8;curved=1;exitX=0.338;exitY=-0.005;exitDx=0;exitDy=0;exitPerimeter=0;" parent="1" source="4" edge="1">
                    <mxGeometry width="140" relative="1" as="geometry">
                        <mxPoint x="231" y="97.65" as="sourcePoint"/>
                        <mxPoint x="311" y="138" as="targetPoint"/>
                        <Array as="points">
                            <mxPoint x="311" y="23.65"/>
                        </Array>
                    </mxGeometry>
                </mxCell>
                <mxCell id="14" value="" style="edgeStyle=none;orthogonalLoop=1;jettySize=auto;html=1;rounded=0;fontSize=16;endArrow=open;startSize=14;endSize=14;sourcePerimeterSpacing=8;targetPerimeterSpacing=8;curved=1;" parent="1" edge="1">
                    <mxGeometry width="140" relative="1" as="geometry">
                        <mxPoint x="182.5" y="4" as="sourcePoint"/>
                        <mxPoint x="393.5" y="-113" as="targetPoint"/>
                        <Array as="points">
                            <mxPoint x="228" y="-36"/>
                            <mxPoint x="270" y="134"/>
                            <mxPoint x="253" y="-64"/>
                            <mxPoint x="295.5" y="59"/>
                            <mxPoint x="361.5" y="-60"/>
                        </Array>
                    </mxGeometry>
                </mxCell>
                <mxCell id="15" value="Prop Drilling" style="text;html=1;align=center;verticalAlign=middle;resizable=0;points=[];autosize=1;strokeColor=none;fillColor=none;fontSize=16;" parent="1" vertex="1">
                    <mxGeometry x="357" y="-149" width="105" height="31" as="geometry"/>
                </mxCell>
                <mxCell id="16" value="Context Global Api" style="rounded=1;whiteSpace=wrap;html=1;fontSize=16;" parent="1" vertex="1">
                    <mxGeometry x="809" y="22" width="380" height="279" as="geometry"/>
                </mxCell>
                <mxCell id="17" value="" style="edgeStyle=none;orthogonalLoop=1;jettySize=auto;html=1;rounded=0;fontSize=16;endArrow=open;startSize=14;endSize=14;sourcePerimeterSpacing=8;targetPerimeterSpacing=8;curved=1;" parent="1" target="4" edge="1">
                    <mxGeometry width="140" relative="1" as="geometry">
                        <mxPoint x="809" y="126" as="sourcePoint"/>
                        <mxPoint x="949" y="126" as="targetPoint"/>
                        <Array as="points"/>
                    </mxGeometry>
                </mxCell>
                <mxCell id="18" value="" style="edgeStyle=none;orthogonalLoop=1;jettySize=auto;html=1;rounded=0;fontSize=16;endArrow=open;startSize=14;endSize=14;sourcePerimeterSpacing=8;targetPerimeterSpacing=8;curved=1;exitX=0;exitY=0.677;exitDx=0;exitDy=0;exitPerimeter=0;" parent="1" source="16" target="5" edge="1">
                    <mxGeometry width="140" relative="1" as="geometry">
                        <mxPoint x="809" y="326" as="sourcePoint"/>
                        <mxPoint x="949" y="326" as="targetPoint"/>
                        <Array as="points"/>
                    </mxGeometry>
                </mxCell>
                <mxCell id="20" style="edgeStyle=none;curved=1;rounded=0;orthogonalLoop=1;jettySize=auto;html=1;fontSize=16;endArrow=open;startSize=14;endSize=14;sourcePerimeterSpacing=8;targetPerimeterSpacing=8;" parent="1" source="19" edge="1">
                    <mxGeometry relative="1" as="geometry">
                        <mxPoint x="611.8461538461538" y="191.74360539362965" as="targetPoint"/>
                    </mxGeometry>
                </mxCell>
                <mxCell id="19" value="Consuming Values directly using useContyext hooks" style="text;html=1;align=center;verticalAlign=middle;resizable=0;points=[];autosize=1;strokeColor=none;fillColor=none;fontSize=16;" parent="1" vertex="1">
                    <mxGeometry x="553" y="-64" width="389" height="31" as="geometry"/>
                </mxCell>
                <mxCell id="23" value="&lt;b&gt;&lt;font style=&quot;font-size: 32px;&quot;&gt;React&lt;/font&gt;&lt;/b&gt;" style="text;strokeColor=none;fillColor=none;html=1;align=center;verticalAlign=middle;whiteSpace=wrap;rounded=0;fontSize=16;fontColor=#1A1A1A;" parent="1" vertex="1">
                    <mxGeometry x="1625" y="-78" width="361" height="66" as="geometry"/>
                </mxCell>
                <mxCell id="24" value="&lt;font style=&quot;font-size: 18px;&quot;&gt;React Core Library&lt;/font&gt;" style="text;strokeColor=none;fillColor=none;html=1;align=center;verticalAlign=middle;whiteSpace=wrap;rounded=0;fontSize=32;fontColor=#1A1A1A;" parent="1" vertex="1">
                    <mxGeometry x="1655" y="-70" width="295" height="101" as="geometry"/>
                </mxCell>
                <mxCell id="25" value="" style="edgeStyle=none;orthogonalLoop=1;jettySize=auto;html=1;rounded=0;fontSize=18;fontColor=#1A1A1A;endArrow=open;startSize=14;endSize=14;sourcePerimeterSpacing=8;targetPerimeterSpacing=8;curved=1;exitX=0.5;exitY=1;exitDx=0;exitDy=0;" parent="1" source="24" edge="1">
                    <mxGeometry width="140" relative="1" as="geometry">
                        <mxPoint x="1690" y="200" as="sourcePoint"/>
                        <mxPoint x="1723" y="109" as="targetPoint"/>
                        <Array as="points">
                            <mxPoint x="1731" y="17"/>
                            <mxPoint x="1731" y="51"/>
                        </Array>
                    </mxGeometry>
                </mxCell>
                <mxCell id="26" value="" style="edgeStyle=none;orthogonalLoop=1;jettySize=auto;html=1;rounded=0;fontSize=18;fontColor=#1A1A1A;endArrow=open;startSize=14;endSize=14;sourcePerimeterSpacing=8;targetPerimeterSpacing=8;curved=1;exitX=0.5;exitY=1;exitDx=0;exitDy=0;" parent="1" edge="1">
                    <mxGeometry width="140" relative="1" as="geometry">
                        <mxPoint x="1892.5" y="33" as="sourcePoint"/>
                        <mxPoint x="1879" y="115" as="targetPoint"/>
                        <Array as="points">
                            <mxPoint x="1812" y="18"/>
                            <mxPoint x="1948" y="52"/>
                            <mxPoint x="1836" y="82"/>
                        </Array>
                    </mxGeometry>
                </mxCell>
                <mxCell id="27" value="React-Dom" style="text;strokeColor=none;fillColor=none;html=1;align=center;verticalAlign=middle;whiteSpace=wrap;rounded=0;fontSize=18;fontColor=#1A1A1A;" parent="1" vertex="1">
                    <mxGeometry x="1671" y="108" width="115" height="30" as="geometry"/>
                </mxCell>
                <mxCell id="29" value="&lt;font style=&quot;font-size: 13px;&quot;&gt;Web&amp;nbsp;&lt;/font&gt;" style="text;strokeColor=none;fillColor=none;html=1;align=center;verticalAlign=middle;whiteSpace=wrap;rounded=0;fontSize=18;fontColor=#1A1A1A;" parent="1" vertex="1">
                    <mxGeometry x="1695" y="122.75" width="60" height="30" as="geometry"/>
                </mxCell>
                <mxCell id="30" value="React-Native" style="text;strokeColor=none;fillColor=none;html=1;align=center;verticalAlign=middle;whiteSpace=wrap;rounded=0;fontSize=18;fontColor=#1A1A1A;" parent="1" vertex="1">
                    <mxGeometry x="1828" y="116" width="115" height="30" as="geometry"/>
                </mxCell>
                <mxCell id="31" value="&lt;span style=&quot;font-size: 13px;&quot;&gt;Mobile&lt;/span&gt;" style="text;strokeColor=none;fillColor=none;html=1;align=center;verticalAlign=middle;whiteSpace=wrap;rounded=0;fontSize=18;fontColor=#1A1A1A;" parent="1" vertex="1">
                    <mxGeometry x="1855.5" y="133" width="60" height="30" as="geometry"/>
                </mxCell>
                <mxCell id="32" value="&lt;div style=&quot;color: rgb(171, 178, 191); background-color: rgb(40, 44, 52); font-family: Consolas, &amp;quot;Courier New&amp;quot;, monospace; font-weight: normal; font-size: 15px; line-height: 20px;&quot;&gt;&lt;div&gt;&lt;span style=&quot;color: #e06c75;&quot;&gt;&quot;dependencies&quot;&lt;/span&gt;&lt;span style=&quot;color: #abb2bf;&quot;&gt;: {&lt;/span&gt;&lt;/div&gt;&lt;div&gt;&lt;span style=&quot;color: #abb2bf;&quot;&gt;&amp;nbsp; &amp;nbsp; &lt;/span&gt;&lt;span style=&quot;color: #e06c75;&quot;&gt;&quot;react&quot;&lt;/span&gt;&lt;span style=&quot;color: #abb2bf;&quot;&gt;: &lt;/span&gt;&lt;span style=&quot;color: #98c379;&quot;&gt;&quot;^18.3.1&quot;&lt;/span&gt;&lt;span style=&quot;color: #abb2bf;&quot;&gt;,&lt;/span&gt;&lt;/div&gt;&lt;div&gt;&lt;span style=&quot;color: #abb2bf;&quot;&gt;&amp;nbsp; &amp;nbsp; &lt;/span&gt;&lt;span style=&quot;color: #e06c75;&quot;&gt;&quot;react-dom&quot;&lt;/span&gt;&lt;span style=&quot;color: #abb2bf;&quot;&gt;: &lt;/span&gt;&lt;span style=&quot;color: #98c379;&quot;&gt;&quot;^18.3.1&quot;&lt;/span&gt;&lt;/div&gt;&lt;div&gt;&lt;span style=&quot;color: #abb2bf;&quot;&gt;&amp;nbsp; },&lt;/span&gt;&lt;/div&gt;&lt;/div&gt;" style="text;whiteSpace=wrap;html=1;fontSize=13;fontColor=#1A1A1A;" parent="1" vertex="1">
                    <mxGeometry x="1620" y="141.5" width="176" height="129.5" as="geometry"/>
                </mxCell>
                <mxCell id="33" value="" style="edgeStyle=none;orthogonalLoop=1;jettySize=auto;html=1;rounded=0;fontSize=13;fontColor=#1A1A1A;endArrow=open;startSize=14;endSize=14;sourcePerimeterSpacing=8;targetPerimeterSpacing=8;curved=1;exitX=0.25;exitY=0;exitDx=0;exitDy=0;" parent="1" source="27" edge="1">
                    <mxGeometry width="140" relative="1" as="geometry">
                        <mxPoint x="1506" y="92.5" as="sourcePoint"/>
                        <mxPoint x="1640" y="112" as="targetPoint"/>
                        <Array as="points"/>
                    </mxGeometry>
                </mxCell>
                <mxCell id="34" value="React-Dom addition library for dom need in react&amp;nbsp;" style="text;strokeColor=none;fillColor=none;html=1;align=center;verticalAlign=middle;whiteSpace=wrap;rounded=0;fontSize=13;fontColor=#1A1A1A;" parent="1" vertex="1">
                    <mxGeometry x="1465" y="100" width="171" height="30" as="geometry"/>
                </mxCell>
                <mxCell id="35" value="React-Native addition library for native (mobile dev) need in react&amp;nbsp;" style="text;strokeColor=none;fillColor=none;html=1;align=center;verticalAlign=middle;whiteSpace=wrap;rounded=0;fontSize=13;fontColor=#1A1A1A;" parent="1" vertex="1">
                    <mxGeometry x="1954" y="122.75" width="171" height="30" as="geometry"/>
                </mxCell>
                <mxCell id="36" value="&lt;div style=&quot;color: rgb(171, 178, 191); background-color: rgb(40, 44, 52); font-family: Consolas, &amp;quot;Courier New&amp;quot;, monospace; font-weight: normal; font-size: 15px; line-height: 20px;&quot;&gt;&lt;div&gt;&lt;span style=&quot;color: #abb2bf;&quot;&gt;&amp;nbsp;&lt;/span&gt;&lt;span style=&quot;color: #e06c75;&quot;&gt;&quot;react&quot;&lt;/span&gt;&lt;span style=&quot;color: #abb2bf;&quot;&gt;: &lt;/span&gt;&lt;span style=&quot;color: #98c379;&quot;&gt;&quot;18.2.0&quot;&lt;/span&gt;&lt;span style=&quot;color: #abb2bf;&quot;&gt;,&lt;/span&gt;&lt;/div&gt;&lt;div&gt;&lt;span style=&quot;color: #abb2bf;&quot;&gt;&amp;nbsp; &amp;nbsp; &lt;/span&gt;&lt;span style=&quot;color: #e06c75;&quot;&gt;&quot;react-dom&quot;&lt;/span&gt;&lt;span style=&quot;color: #abb2bf;&quot;&gt;: &lt;/span&gt;&lt;span style=&quot;color: #98c379;&quot;&gt;&quot;18.2.0&quot;&lt;/span&gt;&lt;span style=&quot;color: #abb2bf;&quot;&gt;,&lt;/span&gt;&lt;/div&gt;&lt;div&gt;&lt;span style=&quot;color: #abb2bf;&quot;&gt;&amp;nbsp; &amp;nbsp; &lt;/span&gt;&lt;span style=&quot;color: #e06c75;&quot;&gt;&quot;react-native&quot;&lt;/span&gt;&lt;span style=&quot;color: #abb2bf;&quot;&gt;: &lt;/span&gt;&lt;span style=&quot;color: #98c379;&quot;&gt;&quot;0.74.5&quot;&lt;/span&gt;&lt;span style=&quot;color: #abb2bf;&quot;&gt;,&lt;/span&gt;&lt;/div&gt;&lt;/div&gt;" style="text;whiteSpace=wrap;html=1;fontSize=13;fontColor=#1A1A1A;" parent="1" vertex="1">
                    <mxGeometry x="1842.0002964154414" y="162.99845530790452" width="267" height="82" as="geometry"/>
                </mxCell>
                <mxCell id="37" value="&lt;font style=&quot;font-size: 18px;&quot;&gt;Redux Core Library&lt;/font&gt;" style="text;strokeColor=none;fillColor=none;html=1;align=center;verticalAlign=middle;whiteSpace=wrap;rounded=0;fontSize=32;fontColor=#1A1A1A;" parent="1" vertex="1">
                    <mxGeometry x="1688" y="412" width="295" height="101" as="geometry"/>
                </mxCell>
                <mxCell id="40" value="" style="edgeStyle=none;curved=1;rounded=0;orthogonalLoop=1;jettySize=auto;html=1;fontSize=13;fontColor=#1A1A1A;endArrow=open;startSize=14;endSize=14;sourcePerimeterSpacing=8;targetPerimeterSpacing=8;" parent="1" source="38" target="39" edge="1">
                    <mxGeometry relative="1" as="geometry"/>
                </mxCell>
                <mxCell id="45" style="edgeStyle=none;curved=1;rounded=0;orthogonalLoop=1;jettySize=auto;html=1;fontSize=23;fontColor=#1A1A1A;endArrow=open;startSize=14;endSize=14;sourcePerimeterSpacing=8;targetPerimeterSpacing=8;" parent="1" source="38" target="41" edge="1">
                    <mxGeometry relative="1" as="geometry"/>
                </mxCell>
                <mxCell id="38" value="&lt;span style=&quot;font-size: 32px;&quot;&gt;&lt;b&gt;Redux&lt;/b&gt;&lt;/span&gt;" style="text;strokeColor=none;fillColor=none;html=1;align=center;verticalAlign=middle;whiteSpace=wrap;rounded=0;fontSize=16;fontColor=#1A1A1A;" parent="1" vertex="1">
                    <mxGeometry x="1655" y="405" width="361" height="66" as="geometry"/>
                </mxCell>
                <mxCell id="39" value="&lt;b style=&quot;&quot;&gt;&lt;font style=&quot;font-size: 23px;&quot;&gt;Redux is independent library, i.e can be used with many frameworks&lt;/font&gt;&lt;/b&gt;" style="text;strokeColor=none;fillColor=none;html=1;align=center;verticalAlign=middle;whiteSpace=wrap;rounded=0;fontSize=13;fontColor=#1A1A1A;" parent="1" vertex="1">
                    <mxGeometry x="2125" y="405" width="361" height="66" as="geometry"/>
                </mxCell>
                <mxCell id="41" value="&lt;span style=&quot;font-size: 32px;&quot;&gt;&lt;b&gt;React-Redux&lt;/b&gt;&lt;/span&gt;" style="text;strokeColor=none;fillColor=none;html=1;align=center;verticalAlign=middle;whiteSpace=wrap;rounded=0;fontSize=16;fontColor=#1A1A1A;" parent="1" vertex="1">
                    <mxGeometry x="1492" y="539" width="361" height="66" as="geometry"/>
                </mxCell>
                <mxCell id="42" value="&lt;span style=&quot;color: rgb(26, 26, 26); font-family: Helvetica; font-size: 18px; font-style: normal; font-variant-ligatures: normal; font-variant-caps: normal; font-weight: 400; letter-spacing: normal; orphans: 2; text-align: center; text-indent: 0px; text-transform: none; widows: 2; word-spacing: 0px; -webkit-text-stroke-width: 0px; background-color: rgb(255, 255, 255); text-decoration-thickness: initial; text-decoration-style: initial; text-decoration-color: initial; float: none; display: inline !important;&quot;&gt;React Redux Library: used in react&amp;nbsp;&lt;/span&gt;" style="text;whiteSpace=wrap;html=1;fontSize=23;fontColor=#1A1A1A;" parent="1" vertex="1">
                    <mxGeometry x="1585.0011381392042" y="596.9967036576705" width="184" height="50" as="geometry"/>
                </mxCell>
                <mxCell id="43" style="edgeStyle=none;curved=1;rounded=0;orthogonalLoop=1;jettySize=auto;html=1;exitX=0.75;exitY=1;exitDx=0;exitDy=0;fontSize=23;fontColor=#1A1A1A;endArrow=open;startSize=14;endSize=14;sourcePerimeterSpacing=8;targetPerimeterSpacing=8;" parent="1" source="42" target="42" edge="1">
                    <mxGeometry relative="1" as="geometry"/>
                </mxCell>
                <mxCell id="49" value="" style="edgeStyle=none;orthogonalLoop=1;jettySize=auto;html=1;rounded=0;endArrow=open;sourcePerimeterSpacing=8;targetPerimeterSpacing=8;curved=1;shape=link;strokeWidth=6;" edge="1" parent="1">
                    <mxGeometry width="120" relative="1" as="geometry">
                        <mxPoint x="1304.9958355034717" y="21.999236653645767" as="sourcePoint"/>
                        <mxPoint x="1314.07" y="1481.702917751736" as="targetPoint"/>
                        <Array as="points"/>
                    </mxGeometry>
                </mxCell>
                <mxCell id="50" value="&lt;div style=&quot;text-align: left;&quot;&gt;&lt;b style=&quot;background-color: initial; font-size: 32px;&quot;&gt;React-Redux implementation:&lt;/b&gt;&lt;/div&gt;&lt;b style=&quot;background-color: initial; font-size: 32px;&quot;&gt;&lt;div style=&quot;text-align: left;&quot;&gt;&lt;b style=&quot;background-color: initial;&quot;&gt;Create store: create a store.js(just a file name)&lt;/b&gt;&lt;/div&gt;&lt;div style=&quot;text-align: left;&quot;&gt;&lt;b style=&quot;background-color: initial;&quot;&gt;import configureStore from &quot;redux-toolkit&quot;&lt;/b&gt;&lt;/div&gt;&lt;div style=&quot;text-align: left;&quot;&gt;&lt;div style=&quot;color: rgb(171, 178, 191); background-color: rgb(40, 44, 52); font-family: Consolas, &amp;quot;Courier New&amp;quot;, monospace; font-weight: normal; font-size: 15px; line-height: 20px;&quot;&gt;&lt;span style=&quot;color: #c678dd;&quot;&gt;import&lt;/span&gt; { &lt;span style=&quot;color: #e06c75;&quot;&gt;configureStore&lt;/span&gt; } &lt;span style=&quot;color: #c678dd;&quot;&gt;from&lt;/span&gt; &lt;span style=&quot;color: #98c379;&quot;&gt;&quot;@reduxjs/toolkit&quot;&lt;/span&gt;;&lt;/div&gt;&lt;/div&gt;&lt;div style=&quot;text-align: left;&quot;&gt;&lt;div style=&quot;color: rgb(171, 178, 191); background-color: rgb(40, 44, 52); font-family: Consolas, &amp;quot;Courier New&amp;quot;, monospace; font-weight: normal; font-size: 15px; line-height: 20px;&quot;&gt;&lt;span style=&quot;color: #c678dd;&quot;&gt;export&lt;/span&gt; &lt;span style=&quot;color: #c678dd;&quot;&gt;const&lt;/span&gt; &lt;span style=&quot;color: #e5c07b;&quot;&gt;store&lt;/span&gt; &lt;span style=&quot;color: #56b6c2;&quot;&gt;=&lt;/span&gt; &lt;span style=&quot;color: #61afef;font-weight: bold;&quot;&gt;configureStore&lt;/span&gt;({});&lt;/div&gt;&lt;/div&gt;&lt;/b&gt;" style="text;strokeColor=none;fillColor=none;html=1;align=center;verticalAlign=middle;whiteSpace=wrap;rounded=0;fontSize=16;fontColor=#1A1A1A;" vertex="1" parent="1">
                    <mxGeometry x="1557" y="711" width="723" height="233" as="geometry"/>
                </mxCell>
                <mxCell id="51" value="&lt;div style=&quot;text-align: left;&quot;&gt;&lt;br&gt;&lt;/div&gt;&lt;b style=&quot;background-color: initial; font-size: 32px;&quot;&gt;&lt;div style=&quot;text-align: left;&quot;&gt;&lt;b style=&quot;background-color: initial;&quot;&gt;Create Slices:&amp;nbsp;&lt;/b&gt;&lt;/div&gt;&lt;/b&gt;&lt;font style=&quot;font-size: 21px;&quot;&gt;&lt;div style=&quot;text-align: left;&quot;&gt;&lt;strong style=&quot;background-color: initial;&quot;&gt;slices&lt;/strong&gt;&lt;span style=&quot;background-color: initial;&quot;&gt; are a concept introduced by the &lt;/span&gt;&lt;code&gt;@reduxjs/toolkit&lt;/code&gt;&lt;span style=&quot;background-color: initial;&quot;&gt; to make state management simpler and more modular. A &lt;/span&gt;&lt;strong style=&quot;background-color: initial;&quot;&gt;slice&lt;/strong&gt;&lt;span style=&quot;background-color: initial;&quot;&gt; represents a portion (or &quot;slice&quot;) of your application's state, and it includes the &lt;/span&gt;&lt;strong style=&quot;background-color: initial;&quot;&gt;state, reducers&lt;/strong&gt;&lt;span style=&quot;background-color: initial;&quot;&gt;, and &lt;/span&gt;&lt;strong style=&quot;background-color: initial;&quot;&gt;actions&lt;/strong&gt;&lt;span style=&quot;background-color: initial;&quot;&gt; all bundled together in a single place.&lt;/span&gt;&lt;/div&gt;&lt;/font&gt;&lt;b style=&quot;background-color: initial; font-size: 32px;&quot;&gt;&lt;div style=&quot;text-align: left;&quot;&gt;&lt;div style=&quot;color: rgb(171, 178, 191); background-color: rgb(40, 44, 52); font-family: Consolas, &amp;quot;Courier New&amp;quot;, monospace; font-weight: normal; font-size: 15px; line-height: 20px;&quot;&gt;&lt;div style=&quot;line-height: 20px;&quot;&gt;&lt;div&gt;&lt;span style=&quot;color: #c678dd;&quot;&gt;import&lt;/span&gt; { &lt;span style=&quot;color: #e06c75;&quot;&gt;createSlice&lt;/span&gt;, &lt;span style=&quot;color: #e06c75;&quot;&gt;nanoid&lt;/span&gt; } &lt;span style=&quot;color: #c678dd;&quot;&gt;from&lt;/span&gt; &lt;span style=&quot;color: #98c379;&quot;&gt;&quot;@reduxjs/toolkit&quot;&lt;/span&gt;;&lt;/div&gt;&lt;div&gt;&lt;span style=&quot;color: #c678dd;&quot;&gt;const&lt;/span&gt; &lt;span style=&quot;color: #e5c07b;&quot;&gt;initialState&lt;/span&gt; &lt;span style=&quot;color: #56b6c2;&quot;&gt;=&lt;/span&gt; {&lt;/div&gt;&lt;div&gt;&amp;nbsp; &lt;span style=&quot;color: #e06c75;&quot;&gt;todos&lt;/span&gt;: [&lt;/div&gt;&lt;div&gt;&amp;nbsp; &amp;nbsp; {&lt;/div&gt;&lt;div&gt;&amp;nbsp; &amp;nbsp; &amp;nbsp; &lt;span style=&quot;color: #e06c75;&quot;&gt;id&lt;/span&gt;: &lt;span style=&quot;color: #d19a66;&quot;&gt;1&lt;/span&gt;,&lt;/div&gt;&lt;div&gt;&amp;nbsp; &amp;nbsp; &amp;nbsp; &lt;span style=&quot;color: #e06c75;&quot;&gt;title&lt;/span&gt;: &lt;span style=&quot;color: #98c379;&quot;&gt;&quot;todo Text&quot;&lt;/span&gt;,&lt;/div&gt;&lt;div&gt;&amp;nbsp; &amp;nbsp; },&lt;/div&gt;&lt;div&gt;&amp;nbsp; ],&lt;/div&gt;&lt;div&gt;};&lt;/div&gt;&lt;br&gt;&lt;div&gt;&lt;span style=&quot;color: #c678dd;&quot;&gt;export&lt;/span&gt; &lt;span style=&quot;color: #c678dd;&quot;&gt;const&lt;/span&gt; &lt;span style=&quot;color: #e5c07b;&quot;&gt;todoSlice&lt;/span&gt; &lt;span style=&quot;color: #56b6c2;&quot;&gt;=&lt;/span&gt; &lt;span style=&quot;color: #61afef;font-weight: bold;&quot;&gt;createSlice&lt;/span&gt;({&lt;/div&gt;&lt;div&gt;&amp;nbsp; &lt;span style=&quot;color: #e06c75;&quot;&gt;name&lt;/span&gt;: &lt;span style=&quot;color: #98c379;&quot;&gt;&quot;todo&quot;&lt;/span&gt;,&lt;/div&gt;&lt;div&gt;&amp;nbsp; &lt;span style=&quot;color: #7f848e;&quot;&gt;// initialState:initialState,&lt;/span&gt;&lt;/div&gt;&lt;div&gt;&amp;nbsp; &lt;span style=&quot;color: #e06c75;&quot;&gt;initialState&lt;/span&gt;, &lt;span style=&quot;color: #7f848e;&quot;&gt;//same as above&lt;/span&gt;&lt;/div&gt;&lt;div&gt;&amp;nbsp; &lt;span style=&quot;color: #e06c75;&quot;&gt;reducers&lt;/span&gt;: {&lt;/div&gt;&lt;div&gt;&amp;nbsp; &amp;nbsp; &lt;span style=&quot;color: #61afef;font-weight: bold;&quot;&gt;addTodo&lt;/span&gt;: (&lt;span style=&quot;color: #e06c75;&quot;&gt;state&lt;/span&gt;, &lt;span style=&quot;color: #e06c75;&quot;&gt;action&lt;/span&gt;) &lt;span style=&quot;color: #c678dd;&quot;&gt;=&amp;gt;&lt;/span&gt; {&lt;/div&gt;&lt;div&gt;&amp;nbsp; &amp;nbsp; &amp;nbsp; &lt;span style=&quot;color: #c678dd;&quot;&gt;const&lt;/span&gt; &lt;span style=&quot;color: #e5c07b;&quot;&gt;todo&lt;/span&gt; &lt;span style=&quot;color: #56b6c2;&quot;&gt;=&lt;/span&gt; { &lt;span style=&quot;color: #e06c75;&quot;&gt;id&lt;/span&gt;: &lt;span style=&quot;color: #61afef;font-weight: bold;&quot;&gt;nanoid&lt;/span&gt;(), &lt;span style=&quot;color: #e06c75;&quot;&gt;title&lt;/span&gt;: &lt;span style=&quot;color: #e06c75;&quot;&gt;action&lt;/span&gt;.&lt;span style=&quot;color: #e06c75;&quot;&gt;payload&lt;/span&gt; };&lt;/div&gt;&lt;div&gt;&amp;nbsp; &amp;nbsp; &amp;nbsp; &lt;span style=&quot;color: #e06c75;&quot;&gt;state&lt;/span&gt;.&lt;span style=&quot;color: #e06c75;&quot;&gt;todos&lt;/span&gt;.&lt;span style=&quot;color: #61afef;font-weight: bold;&quot;&gt;push&lt;/span&gt;(&lt;span style=&quot;color: #e5c07b;&quot;&gt;todo&lt;/span&gt;);&lt;/div&gt;&lt;div&gt;&amp;nbsp; &amp;nbsp; },&lt;/div&gt;&lt;div&gt;&amp;nbsp; &amp;nbsp; &lt;span style=&quot;color: #61afef;font-weight: bold;&quot;&gt;removeTodo&lt;/span&gt;: (&lt;span style=&quot;color: #e06c75;&quot;&gt;state&lt;/span&gt;, &lt;span style=&quot;color: #e06c75;&quot;&gt;action&lt;/span&gt;) &lt;span style=&quot;color: #c678dd;&quot;&gt;=&amp;gt;&lt;/span&gt; {&lt;/div&gt;&lt;div&gt;&amp;nbsp; &amp;nbsp; &amp;nbsp; &lt;span style=&quot;color: #e06c75;&quot;&gt;state&lt;/span&gt;.&lt;span style=&quot;color: #e06c75;&quot;&gt;todos&lt;/span&gt; &lt;span style=&quot;color: #56b6c2;&quot;&gt;=&lt;/span&gt; &lt;span style=&quot;color: #e06c75;&quot;&gt;state&lt;/span&gt;.&lt;span style=&quot;color: #e06c75;&quot;&gt;todos&lt;/span&gt;.&lt;span style=&quot;color: #61afef;font-weight: bold;&quot;&gt;filter&lt;/span&gt;((&lt;span style=&quot;color: #e06c75;&quot;&gt;ele&lt;/span&gt;) &lt;span style=&quot;color: #c678dd;&quot;&gt;=&amp;gt;&lt;/span&gt; &lt;span style=&quot;color: #e06c75;&quot;&gt;ele&lt;/span&gt;.&lt;span style=&quot;color: #e06c75;&quot;&gt;id&lt;/span&gt; &lt;span style=&quot;color: #56b6c2;&quot;&gt;!==&lt;/span&gt; &lt;span style=&quot;color: #e06c75;&quot;&gt;action&lt;/span&gt;.&lt;span style=&quot;color: #e06c75;&quot;&gt;payload&lt;/span&gt;);&lt;/div&gt;&lt;div&gt;&amp;nbsp; &amp;nbsp; },&lt;/div&gt;&lt;div&gt;&amp;nbsp; &amp;nbsp; &lt;span style=&quot;color: #61afef;font-weight: bold;&quot;&gt;editTodo&lt;/span&gt;: (&lt;span style=&quot;color: #e06c75;&quot;&gt;state&lt;/span&gt;, &lt;span style=&quot;color: #e06c75;&quot;&gt;action&lt;/span&gt;) &lt;span style=&quot;color: #c678dd;&quot;&gt;=&amp;gt;&lt;/span&gt; {&lt;/div&gt;&lt;div&gt;&amp;nbsp; &amp;nbsp; &amp;nbsp; &lt;span style=&quot;color: #e06c75;&quot;&gt;state&lt;/span&gt;.&lt;span style=&quot;color: #e06c75;&quot;&gt;todos&lt;/span&gt; &lt;span style=&quot;color: #56b6c2;&quot;&gt;=&lt;/span&gt; &lt;span style=&quot;color: #e06c75;&quot;&gt;state&lt;/span&gt;.&lt;span style=&quot;color: #e06c75;&quot;&gt;todos&lt;/span&gt;.&lt;span style=&quot;color: #61afef;font-weight: bold;&quot;&gt;filter&lt;/span&gt;((&lt;span style=&quot;color: #e06c75;&quot;&gt;ele&lt;/span&gt;) &lt;span style=&quot;color: #c678dd;&quot;&gt;=&amp;gt;&lt;/span&gt; &lt;span style=&quot;color: #e06c75;&quot;&gt;ele&lt;/span&gt;.&lt;span style=&quot;color: #e06c75;&quot;&gt;id&lt;/span&gt; &lt;span style=&quot;color: #56b6c2;&quot;&gt;!==&lt;/span&gt; &lt;span style=&quot;color: #e06c75;&quot;&gt;action&lt;/span&gt;.&lt;span style=&quot;color: #e06c75;&quot;&gt;payload&lt;/span&gt;);&lt;/div&gt;&lt;div&gt;&amp;nbsp; &amp;nbsp; },&lt;/div&gt;&lt;div&gt;&amp;nbsp; &amp;nbsp; &lt;span style=&quot;color: #61afef;font-weight: bold;&quot;&gt;updateTodo&lt;/span&gt;: () &lt;span style=&quot;color: #c678dd;&quot;&gt;=&amp;gt;&lt;/span&gt; {},&lt;/div&gt;&lt;div&gt;&amp;nbsp; },&lt;/div&gt;&lt;div&gt;});&lt;/div&gt;&lt;br&gt;&lt;/div&gt;&lt;/div&gt;&lt;/div&gt;&lt;/b&gt;" style="text;strokeColor=none;fillColor=none;html=1;align=center;verticalAlign=middle;whiteSpace=wrap;rounded=0;fontSize=16;fontColor=#1A1A1A;" vertex="1" parent="1">
                    <mxGeometry x="1552" y="1164" width="723" height="233" as="geometry"/>
                </mxCell>
                <mxCell id="57" value="" style="edgeStyle=none;orthogonalLoop=1;jettySize=auto;html=1;rounded=0;strokeWidth=2;fontSize=21;endArrow=open;sourcePerimeterSpacing=8;targetPerimeterSpacing=8;curved=1;strokeColor=#FFB366;exitX=0.162;exitY=0.901;exitDx=0;exitDy=0;exitPerimeter=0;" edge="1" parent="1" source="51">
                    <mxGeometry width="140" relative="1" as="geometry">
                        <mxPoint x="1818" y="1369" as="sourcePoint"/>
                        <mxPoint x="1940" y="1333" as="targetPoint"/>
                        <Array as="points">
                            <mxPoint x="1919" y="1292"/>
                        </Array>
                    </mxGeometry>
                </mxCell>
                <mxCell id="58" value="" style="edgeStyle=none;orthogonalLoop=1;jettySize=auto;html=1;rounded=0;strokeWidth=2;fontSize=21;endArrow=open;sourcePerimeterSpacing=8;targetPerimeterSpacing=8;curved=1;strokeColor=#FFB366;exitX=0.162;exitY=0.901;exitDx=0;exitDy=0;exitPerimeter=0;" edge="1" parent="1">
                    <mxGeometry width="140" relative="1" as="geometry">
                        <mxPoint x="1670.996" y="1450.933" as="sourcePoint"/>
                        <mxPoint x="1936" y="1334" as="targetPoint"/>
                        <Array as="points">
                            <mxPoint x="1910.87" y="1363"/>
                        </Array>
                    </mxGeometry>
                </mxCell>
                <mxCell id="59" value="" style="edgeStyle=none;orthogonalLoop=1;jettySize=auto;html=1;rounded=0;strokeWidth=2;fontSize=21;endArrow=open;sourcePerimeterSpacing=8;targetPerimeterSpacing=8;curved=1;strokeColor=#FFB366;exitX=0.152;exitY=1.481;exitDx=0;exitDy=0;exitPerimeter=0;" edge="1" parent="1" source="51">
                    <mxGeometry width="140" relative="1" as="geometry">
                        <mxPoint x="1680.9960000000005" y="1460.933" as="sourcePoint"/>
                        <mxPoint x="1946" y="1344" as="targetPoint"/>
                        <Array as="points">
                            <mxPoint x="1920.87" y="1373"/>
                        </Array>
                    </mxGeometry>
                </mxCell>
                <mxCell id="60" value="&lt;font color=&quot;#ffffff&quot;&gt;Slices for each todo&amp;nbsp;&lt;/font&gt;" style="text;strokeColor=none;fillColor=none;html=1;align=center;verticalAlign=middle;whiteSpace=wrap;rounded=0;fontSize=21;" vertex="1" parent="1">
                    <mxGeometry x="1891.5" y="1318" width="296" height="30" as="geometry"/>
                </mxCell>
                <mxCell id="87" value="" style="edgeStyle=none;orthogonalLoop=1;jettySize=auto;html=1;rounded=0;fontColor=#FFFFFF;endArrow=open;startSize=14;endSize=14;sourcePerimeterSpacing=8;targetPerimeterSpacing=8;curved=1;strokeColor=#FFFFFF;" edge="1" parent="1">
                    <mxGeometry width="140" relative="1" as="geometry">
                        <mxPoint x="1695" y="1112" as="sourcePoint"/>
                        <mxPoint x="1845" y="1125" as="targetPoint"/>
                        <Array as="points"/>
                    </mxGeometry>
                </mxCell>
                <mxCell id="89" value="&lt;font color=&quot;#ffffff&quot;&gt;Initial State of todo&lt;/font&gt;" style="text;strokeColor=none;fillColor=none;html=1;align=center;verticalAlign=middle;whiteSpace=wrap;rounded=0;fontSize=21;" vertex="1" parent="1">
                    <mxGeometry x="1806" y="1111" width="296" height="30" as="geometry"/>
                </mxCell>
                <mxCell id="91" value="&lt;li style=&quot;font-size: 18px;&quot;&gt;&lt;font style=&quot;font-size: 18px;&quot; color=&quot;#4d4d4d&quot;&gt;&lt;strong style=&quot;&quot;&gt;&lt;code style=&quot;&quot;&gt;name&lt;/code&gt;&lt;/strong&gt;: A string name for the slice, which is used to prefix action types.&lt;/font&gt;&lt;/li&gt;&lt;li style=&quot;font-size: 18px;&quot;&gt;&lt;font style=&quot;font-size: 18px;&quot; color=&quot;#4d4d4d&quot;&gt;&lt;strong&gt;&lt;code&gt;initialState&lt;/code&gt;&lt;/strong&gt;: The initial state for this slice of the state tree.&lt;/font&gt;&lt;/li&gt;&lt;li style=&quot;font-size: 18px;&quot;&gt;&lt;font style=&quot;font-size: 18px;&quot; color=&quot;#4d4d4d&quot;&gt;&lt;strong style=&quot;&quot;&gt;&lt;code&gt;reducers&lt;/code&gt;&lt;/strong&gt;: An object of functions that define how the state is updated. Each function corresponds to an action.&lt;/font&gt;&lt;/li&gt;" style="text;whiteSpace=wrap;html=1;fontColor=#FFFFFF;align=left;" vertex="1" parent="1">
                    <mxGeometry x="1523" y="1659" width="956" height="136" as="geometry"/>
                </mxCell>
                <mxCell id="92" value="" style="edgeStyle=none;orthogonalLoop=1;jettySize=auto;html=1;rounded=0;endArrow=open;sourcePerimeterSpacing=8;targetPerimeterSpacing=8;curved=1;shape=link;strokeWidth=6;" edge="1" parent="1">
                    <mxGeometry width="120" relative="1" as="geometry">
                        <mxPoint x="2679" y="-178" as="sourcePoint"/>
                        <mxPoint x="2707" y="2038" as="targetPoint"/>
                        <Array as="points"/>
                    </mxGeometry>
                </mxCell>
                <mxCell id="94" value="&lt;div style=&quot;color: rgb(171, 178, 191); background-color: rgb(40, 44, 52); font-family: Consolas, &amp;quot;Courier New&amp;quot;, monospace; font-weight: normal; line-height: 147%; font-size: 30px;&quot;&gt;&lt;div style=&quot;line-height: 147%;&quot;&gt;&lt;span style=&quot;color: #e06c75;&quot;&gt;How&lt;/span&gt;&lt;span style=&quot;color: #abb2bf;&quot;&gt; &lt;/span&gt;&lt;span style=&quot;color: #e06c75;&quot;&gt;to&lt;/span&gt;&lt;span style=&quot;color: #abb2bf;&quot;&gt; &lt;/span&gt;&lt;span style=&quot;color: #e06c75;&quot;&gt;Create&lt;/span&gt;&lt;span style=&quot;color: #abb2bf;&quot;&gt; &lt;/span&gt;&lt;span style=&quot;color: #e06c75;&quot;&gt;a&lt;/span&gt;&lt;span style=&quot;color: #abb2bf;&quot;&gt; &lt;/span&gt;&lt;span style=&quot;color: #e06c75;&quot;&gt;Redux&lt;/span&gt;&lt;span style=&quot;color: #abb2bf;&quot;&gt; &lt;/span&gt;&lt;span style=&quot;color: #e06c75;&quot;&gt;Slice&lt;/span&gt;&lt;span style=&quot;color: #abb2bf;&quot;&gt;:&lt;/span&gt;&lt;/div&gt;&lt;div style=&quot;line-height: 147%;&quot;&gt;&lt;span style=&quot;color: #e06c75;&quot;&gt;You&lt;/span&gt;&lt;span style=&quot;color: #abb2bf;&quot;&gt; &lt;/span&gt;&lt;span style=&quot;color: #e06c75;&quot;&gt;use&lt;/span&gt;&lt;span style=&quot;color: #abb2bf;&quot;&gt; &lt;/span&gt;&lt;span style=&quot;color: #e06c75;&quot;&gt;the&lt;/span&gt;&lt;span style=&quot;color: #abb2bf;&quot;&gt; &lt;/span&gt;&lt;span style=&quot;color: #61afef;font-weight: bold;&quot;&gt;createSlice&lt;/span&gt;&lt;span style=&quot;color: #abb2bf;&quot;&gt; &lt;/span&gt;&lt;span style=&quot;color: #c678dd;&quot;&gt;function&lt;/span&gt;&lt;span style=&quot;color: #abb2bf;&quot;&gt; &lt;/span&gt;&lt;span style=&quot;color: #61afef;font-weight: bold;&quot;&gt;from&lt;/span&gt;&lt;span style=&quot;color: #abb2bf;&quot;&gt; @&lt;/span&gt;&lt;span style=&quot;color: #61afef;font-weight: bold;&quot;&gt;reduxjs&lt;/span&gt;&lt;span style=&quot;color: #abb2bf;&quot;&gt;/&lt;/span&gt;&lt;span style=&quot;color: #61afef;font-weight: bold;&quot;&gt;toolkit&lt;/span&gt;&lt;span style=&quot;color: #abb2bf;&quot;&gt; &lt;/span&gt;&lt;span style=&quot;color: #61afef;font-weight: bold;&quot;&gt;to&lt;/span&gt;&lt;span style=&quot;color: #abb2bf;&quot;&gt; &lt;/span&gt;&lt;span style=&quot;color: #61afef;font-weight: bold;&quot;&gt;define&lt;/span&gt;&lt;span style=&quot;color: #abb2bf;&quot;&gt; &lt;/span&gt;&lt;span style=&quot;color: #61afef;font-weight: bold;&quot;&gt;a&lt;/span&gt;&lt;span style=&quot;color: #abb2bf;&quot;&gt; &lt;/span&gt;&lt;span style=&quot;color: #61afef;font-weight: bold;&quot;&gt;slice&lt;/span&gt;&lt;span style=&quot;color: #abb2bf;&quot;&gt;. &lt;/span&gt;&lt;span style=&quot;color: #61afef;font-weight: bold;&quot;&gt;It&lt;/span&gt;&lt;span style=&quot;color: #abb2bf;&quot;&gt; &lt;/span&gt;&lt;span style=&quot;color: #61afef;font-weight: bold;&quot;&gt;generates&lt;/span&gt;&lt;span style=&quot;color: #abb2bf;&quot;&gt; &lt;/span&gt;&lt;span style=&quot;color: #61afef;font-weight: bold;&quot;&gt;action&lt;/span&gt;&lt;span style=&quot;color: #abb2bf;&quot;&gt; &lt;/span&gt;&lt;span style=&quot;color: #61afef;font-weight: bold;&quot;&gt;creators&lt;/span&gt;&lt;span style=&quot;color: #abb2bf;&quot;&gt; &lt;/span&gt;&lt;span style=&quot;color: #61afef;font-weight: bold;&quot;&gt;and&lt;/span&gt;&lt;span style=&quot;color: #abb2bf;&quot;&gt; &lt;/span&gt;&lt;span style=&quot;color: #61afef;font-weight: bold;&quot;&gt;action&lt;/span&gt;&lt;span style=&quot;color: #abb2bf;&quot;&gt; &lt;/span&gt;&lt;span style=&quot;color: #61afef;font-weight: bold;&quot;&gt;types&lt;/span&gt;&lt;span style=&quot;color: #abb2bf;&quot;&gt; &lt;/span&gt;&lt;span style=&quot;color: #61afef;font-weight: bold;&quot;&gt;based&lt;/span&gt;&lt;span style=&quot;color: #abb2bf;&quot;&gt; &lt;/span&gt;&lt;span style=&quot;color: #61afef;font-weight: bold;&quot;&gt;on&lt;/span&gt;&lt;span style=&quot;color: #abb2bf;&quot;&gt; &lt;/span&gt;&lt;span style=&quot;color: #61afef;font-weight: bold;&quot;&gt;the&lt;/span&gt;&lt;span style=&quot;color: #abb2bf;&quot;&gt; &lt;/span&gt;&lt;span style=&quot;color: #61afef;font-weight: bold;&quot;&gt;reducer&lt;/span&gt;&lt;span style=&quot;color: #abb2bf;&quot;&gt; &lt;/span&gt;&lt;span style=&quot;color: #61afef;font-weight: bold;&quot;&gt;functions&lt;/span&gt;&lt;span style=&quot;color: #abb2bf;&quot;&gt; &lt;/span&gt;&lt;span style=&quot;color: #61afef;font-weight: bold;&quot;&gt;you&lt;/span&gt;&lt;span style=&quot;color: #abb2bf;&quot;&gt; &lt;/span&gt;&lt;span style=&quot;color: #61afef;font-weight: bold;&quot;&gt;provide&lt;/span&gt;&lt;span style=&quot;color: #abb2bf;&quot;&gt;.&lt;/span&gt;&lt;/div&gt;&lt;br&gt;&lt;div style=&quot;line-height: 147%;&quot;&gt;&lt;span style=&quot;color: #e06c75;&quot;&gt;Example&lt;/span&gt;&lt;span style=&quot;color: #abb2bf;&quot;&gt; &lt;/span&gt;&lt;span style=&quot;color: #c678dd;&quot;&gt;of&lt;/span&gt;&lt;span style=&quot;color: #abb2bf;&quot;&gt; &lt;/span&gt;&lt;span style=&quot;color: #e06c75;&quot;&gt;Creating&lt;/span&gt;&lt;span style=&quot;color: #abb2bf;&quot;&gt; &lt;/span&gt;&lt;span style=&quot;color: #e06c75;&quot;&gt;a&lt;/span&gt;&lt;span style=&quot;color: #abb2bf;&quot;&gt; &lt;/span&gt;&lt;span style=&quot;color: #e06c75;&quot;&gt;Redux&lt;/span&gt;&lt;span style=&quot;color: #abb2bf;&quot;&gt; &lt;/span&gt;&lt;span style=&quot;color: #e06c75;&quot;&gt;Slice&lt;/span&gt;&lt;span style=&quot;color: #abb2bf;&quot;&gt;:&lt;/span&gt;&lt;/div&gt;&lt;div style=&quot;line-height: 147%;&quot;&gt;&lt;span style=&quot;color: #e06c75;&quot;&gt;javascript&lt;/span&gt;&lt;/div&gt;&lt;div style=&quot;line-height: 147%;&quot;&gt;&lt;span style=&quot;color: #e06c75;&quot;&gt;Copy&lt;/span&gt;&lt;span style=&quot;color: #abb2bf;&quot;&gt; &lt;/span&gt;&lt;span style=&quot;color: #e06c75;&quot;&gt;code&lt;/span&gt;&lt;/div&gt;&lt;div style=&quot;line-height: 147%;&quot;&gt;&lt;span style=&quot;color: #c678dd;&quot;&gt;import&lt;/span&gt;&lt;span style=&quot;color: #abb2bf;&quot;&gt; { &lt;/span&gt;&lt;span style=&quot;color: #e06c75;&quot;&gt;createSlice&lt;/span&gt;&lt;span style=&quot;color: #abb2bf;&quot;&gt; } &lt;/span&gt;&lt;span style=&quot;color: #c678dd;&quot;&gt;from&lt;/span&gt;&lt;span style=&quot;color: #abb2bf;&quot;&gt; &lt;/span&gt;&lt;span style=&quot;color: #98c379;&quot;&gt;'@reduxjs/toolkit'&lt;/span&gt;&lt;span style=&quot;color: #abb2bf;&quot;&gt;;&lt;/span&gt;&lt;/div&gt;&lt;br&gt;&lt;div style=&quot;line-height: 147%;&quot;&gt;&lt;span style=&quot;color: #7f848e;&quot;&gt;// Create a slice for counter-related state&lt;/span&gt;&lt;/div&gt;&lt;div style=&quot;line-height: 147%;&quot;&gt;&lt;span style=&quot;color: #c678dd;&quot;&gt;const&lt;/span&gt;&lt;span style=&quot;color: #abb2bf;&quot;&gt; &lt;/span&gt;&lt;span style=&quot;color: #e5c07b;&quot;&gt;counterSlice&lt;/span&gt;&lt;span style=&quot;color: #abb2bf;&quot;&gt; &lt;/span&gt;&lt;span style=&quot;color: #56b6c2;&quot;&gt;=&lt;/span&gt;&lt;span style=&quot;color: #abb2bf;&quot;&gt; &lt;/span&gt;&lt;span style=&quot;color: #61afef;font-weight: bold;&quot;&gt;createSlice&lt;/span&gt;&lt;span style=&quot;color: #abb2bf;&quot;&gt;({&lt;/span&gt;&lt;/div&gt;&lt;div style=&quot;line-height: 147%;&quot;&gt;&lt;span style=&quot;color: #abb2bf;&quot;&gt;&amp;nbsp; &lt;/span&gt;&lt;span style=&quot;color: #e06c75;&quot;&gt;name&lt;/span&gt;&lt;span style=&quot;color: #abb2bf;&quot;&gt;: &lt;/span&gt;&lt;span style=&quot;color: #98c379;&quot;&gt;'counter'&lt;/span&gt;&lt;span style=&quot;color: #abb2bf;&quot;&gt;, &amp;nbsp;&lt;/span&gt;&lt;span style=&quot;color: #7f848e;&quot;&gt;// Name of the slice&lt;/span&gt;&lt;/div&gt;&lt;div style=&quot;line-height: 147%;&quot;&gt;&lt;span style=&quot;color: #abb2bf;&quot;&gt;&amp;nbsp; &lt;/span&gt;&lt;span style=&quot;color: #e06c75;&quot;&gt;initialState&lt;/span&gt;&lt;span style=&quot;color: #abb2bf;&quot;&gt;: { &lt;/span&gt;&lt;span style=&quot;color: #e06c75;&quot;&gt;value&lt;/span&gt;&lt;span style=&quot;color: #abb2bf;&quot;&gt;: &lt;/span&gt;&lt;span style=&quot;color: #d19a66;&quot;&gt;0&lt;/span&gt;&lt;span style=&quot;color: #abb2bf;&quot;&gt; }, &amp;nbsp;&lt;/span&gt;&lt;span style=&quot;color: #7f848e;&quot;&gt;// Initial state for this slice&lt;/span&gt;&lt;/div&gt;&lt;div style=&quot;line-height: 147%;&quot;&gt;&lt;span style=&quot;color: #abb2bf;&quot;&gt;&amp;nbsp; &lt;/span&gt;&lt;span style=&quot;color: #e06c75;&quot;&gt;reducers&lt;/span&gt;&lt;span style=&quot;color: #abb2bf;&quot;&gt;: {&lt;/span&gt;&lt;/div&gt;&lt;div style=&quot;line-height: 147%;&quot;&gt;&lt;span style=&quot;color: #abb2bf;&quot;&gt;&amp;nbsp; &amp;nbsp; &lt;/span&gt;&lt;span style=&quot;color: #61afef;font-weight: bold;&quot;&gt;increment&lt;/span&gt;&lt;span style=&quot;color: #abb2bf;&quot;&gt;: (&lt;/span&gt;&lt;span style=&quot;color: #e06c75;&quot;&gt;state&lt;/span&gt;&lt;span style=&quot;color: #abb2bf;&quot;&gt;) &lt;/span&gt;&lt;span style=&quot;color: #c678dd;&quot;&gt;=&amp;gt;&lt;/span&gt;&lt;span style=&quot;color: #abb2bf;&quot;&gt; {&lt;/span&gt;&lt;/div&gt;&lt;div style=&quot;line-height: 147%;&quot;&gt;&lt;span style=&quot;color: #abb2bf;&quot;&gt;&amp;nbsp; &amp;nbsp; &amp;nbsp; &lt;/span&gt;&lt;span style=&quot;color: #e06c75;&quot;&gt;state&lt;/span&gt;&lt;span style=&quot;color: #abb2bf;&quot;&gt;.&lt;/span&gt;&lt;span style=&quot;color: #e06c75;&quot;&gt;value&lt;/span&gt;&lt;span style=&quot;color: #abb2bf;&quot;&gt; &lt;/span&gt;&lt;span style=&quot;color: #56b6c2;&quot;&gt;+=&lt;/span&gt;&lt;span style=&quot;color: #abb2bf;&quot;&gt; &lt;/span&gt;&lt;span style=&quot;color: #d19a66;&quot;&gt;1&lt;/span&gt;&lt;span style=&quot;color: #abb2bf;&quot;&gt;; &amp;nbsp;&lt;/span&gt;&lt;span style=&quot;color: #7f848e;&quot;&gt;// Logic for incrementing the counter&lt;/span&gt;&lt;/div&gt;&lt;div style=&quot;line-height: 147%;&quot;&gt;&lt;span style=&quot;color: #abb2bf;&quot;&gt;&amp;nbsp; &amp;nbsp; },&lt;/span&gt;&lt;/div&gt;&lt;div style=&quot;line-height: 147%;&quot;&gt;&lt;span style=&quot;color: #abb2bf;&quot;&gt;&amp;nbsp; &amp;nbsp; &lt;/span&gt;&lt;span style=&quot;color: #61afef;font-weight: bold;&quot;&gt;decrement&lt;/span&gt;&lt;span style=&quot;color: #abb2bf;&quot;&gt;: (&lt;/span&gt;&lt;span style=&quot;color: #e06c75;&quot;&gt;state&lt;/span&gt;&lt;span style=&quot;color: #abb2bf;&quot;&gt;) &lt;/span&gt;&lt;span style=&quot;color: #c678dd;&quot;&gt;=&amp;gt;&lt;/span&gt;&lt;span style=&quot;color: #abb2bf;&quot;&gt; {&lt;/span&gt;&lt;/div&gt;&lt;div style=&quot;line-height: 147%;&quot;&gt;&lt;span style=&quot;color: #abb2bf;&quot;&gt;&amp;nbsp; &amp;nbsp; &amp;nbsp; &lt;/span&gt;&lt;span style=&quot;color: #e06c75;&quot;&gt;state&lt;/span&gt;&lt;span style=&quot;color: #abb2bf;&quot;&gt;.&lt;/span&gt;&lt;span style=&quot;color: #e06c75;&quot;&gt;value&lt;/span&gt;&lt;span style=&quot;color: #abb2bf;&quot;&gt; &lt;/span&gt;&lt;span style=&quot;color: #56b6c2;&quot;&gt;-=&lt;/span&gt;&lt;span style=&quot;color: #abb2bf;&quot;&gt; &lt;/span&gt;&lt;span style=&quot;color: #d19a66;&quot;&gt;1&lt;/span&gt;&lt;span style=&quot;color: #abb2bf;&quot;&gt;; &amp;nbsp;&lt;/span&gt;&lt;span style=&quot;color: #7f848e;&quot;&gt;// Logic for decrementing the counter&lt;/span&gt;&lt;/div&gt;&lt;div style=&quot;line-height: 147%;&quot;&gt;&lt;span style=&quot;color: #abb2bf;&quot;&gt;&amp;nbsp; &amp;nbsp; },&lt;/span&gt;&lt;/div&gt;&lt;div style=&quot;line-height: 147%;&quot;&gt;&lt;span style=&quot;color: #abb2bf;&quot;&gt;&amp;nbsp; &amp;nbsp; &lt;/span&gt;&lt;span style=&quot;color: #61afef;font-weight: bold;&quot;&gt;incrementByAmount&lt;/span&gt;&lt;span style=&quot;color: #abb2bf;&quot;&gt;: (&lt;/span&gt;&lt;span style=&quot;color: #e06c75;&quot;&gt;state&lt;/span&gt;&lt;span style=&quot;color: #abb2bf;&quot;&gt;, &lt;/span&gt;&lt;span style=&quot;color: #e06c75;&quot;&gt;action&lt;/span&gt;&lt;span style=&quot;color: #abb2bf;&quot;&gt;) &lt;/span&gt;&lt;span style=&quot;color: #c678dd;&quot;&gt;=&amp;gt;&lt;/span&gt;&lt;span style=&quot;color: #abb2bf;&quot;&gt; {&lt;/span&gt;&lt;/div&gt;&lt;div style=&quot;line-height: 147%;&quot;&gt;&lt;span style=&quot;color: #abb2bf;&quot;&gt;&amp;nbsp; &amp;nbsp; &amp;nbsp; &lt;/span&gt;&lt;span style=&quot;color: #e06c75;&quot;&gt;state&lt;/span&gt;&lt;span style=&quot;color: #abb2bf;&quot;&gt;.&lt;/span&gt;&lt;span style=&quot;color: #e06c75;&quot;&gt;value&lt;/span&gt;&lt;span style=&quot;color: #abb2bf;&quot;&gt; &lt;/span&gt;&lt;span style=&quot;color: #56b6c2;&quot;&gt;+=&lt;/span&gt;&lt;span style=&quot;color: #abb2bf;&quot;&gt; &lt;/span&gt;&lt;span style=&quot;color: #e06c75;&quot;&gt;action&lt;/span&gt;&lt;span style=&quot;color: #abb2bf;&quot;&gt;.&lt;/span&gt;&lt;span style=&quot;color: #e06c75;&quot;&gt;payload&lt;/span&gt;&lt;span style=&quot;color: #abb2bf;&quot;&gt;; &amp;nbsp;&lt;/span&gt;&lt;span style=&quot;color: #7f848e;&quot;&gt;// Logic for incrementing by a specific value&lt;/span&gt;&lt;/div&gt;&lt;div style=&quot;line-height: 147%;&quot;&gt;&lt;span style=&quot;color: #abb2bf;&quot;&gt;&amp;nbsp; &amp;nbsp; },&lt;/span&gt;&lt;/div&gt;&lt;div style=&quot;line-height: 147%;&quot;&gt;&lt;span style=&quot;color: #abb2bf;&quot;&gt;&amp;nbsp; },&lt;/span&gt;&lt;/div&gt;&lt;div style=&quot;line-height: 147%;&quot;&gt;&lt;span style=&quot;color: #abb2bf;&quot;&gt;});&lt;/span&gt;&lt;/div&gt;&lt;br&gt;&lt;div style=&quot;line-height: 147%;&quot;&gt;&lt;span style=&quot;color: #7f848e;&quot;&gt;// Export the actions generated by createSlice&lt;/span&gt;&lt;/div&gt;&lt;div style=&quot;line-height: 147%;&quot;&gt;&lt;span style=&quot;color: #c678dd;&quot;&gt;export&lt;/span&gt;&lt;span style=&quot;color: #abb2bf;&quot;&gt; &lt;/span&gt;&lt;span style=&quot;color: #c678dd;&quot;&gt;const&lt;/span&gt;&lt;span style=&quot;color: #abb2bf;&quot;&gt; { &lt;/span&gt;&lt;span style=&quot;color: #e5c07b;&quot;&gt;increment&lt;/span&gt;&lt;span style=&quot;color: #abb2bf;&quot;&gt;, &lt;/span&gt;&lt;span style=&quot;color: #e5c07b;&quot;&gt;decrement&lt;/span&gt;&lt;span style=&quot;color: #abb2bf;&quot;&gt;, &lt;/span&gt;&lt;span style=&quot;color: #e5c07b;&quot;&gt;incrementByAmount&lt;/span&gt;&lt;span style=&quot;color: #abb2bf;&quot;&gt; } &lt;/span&gt;&lt;span style=&quot;color: #56b6c2;&quot;&gt;=&lt;/span&gt;&lt;span style=&quot;color: #abb2bf;&quot;&gt; &lt;/span&gt;&lt;span style=&quot;color: #e5c07b;&quot;&gt;counterSlice&lt;/span&gt;&lt;span style=&quot;color: #abb2bf;&quot;&gt;.&lt;/span&gt;&lt;span style=&quot;color: #e06c75;&quot;&gt;actions&lt;/span&gt;&lt;span style=&quot;color: #abb2bf;&quot;&gt;;&lt;/span&gt;&lt;/div&gt;&lt;br&gt;&lt;div style=&quot;line-height: 147%;&quot;&gt;&lt;span style=&quot;color: #7f848e;&quot;&gt;// Export the reducer to be included in the store&lt;/span&gt;&lt;/div&gt;&lt;div style=&quot;line-height: 147%;&quot;&gt;&lt;span style=&quot;color: #c678dd;&quot;&gt;export&lt;/span&gt;&lt;span style=&quot;color: #abb2bf;&quot;&gt; &lt;/span&gt;&lt;span style=&quot;color: #c678dd;&quot;&gt;default&lt;/span&gt;&lt;span style=&quot;color: #abb2bf;&quot;&gt; &lt;/span&gt;&lt;span style=&quot;color: #e5c07b;&quot;&gt;counterSlice&lt;/span&gt;&lt;span style=&quot;color: #abb2bf;&quot;&gt;.&lt;/span&gt;&lt;span style=&quot;color: #61afef;font-weight: bold;&quot;&gt;reducer&lt;/span&gt;&lt;span style=&quot;color: #abb2bf;&quot;&gt;;&lt;/span&gt;&lt;/div&gt;&lt;/div&gt;" style="text;whiteSpace=wrap;html=1;fontSize=19;fontColor=#FFFFFF;" vertex="1" parent="1">
                    <mxGeometry x="2833" y="-170" width="1915" height="1382.33" as="geometry"/>
                </mxCell>
                <mxCell id="96" value="&lt;div style=&quot;color: rgb(171, 178, 191); background-color: rgb(40, 44, 52); font-family: Consolas, &amp;quot;Courier New&amp;quot;, monospace; font-weight: normal; line-height: 143%; font-size: 37px;&quot;&gt;&lt;div style=&quot;line-height: 143%;&quot;&gt;&lt;span style=&quot;color: #e06c75;&quot;&gt;Usage&lt;/span&gt;&lt;span style=&quot;color: #abb2bf;&quot;&gt; &lt;/span&gt;&lt;span style=&quot;color: #c678dd;&quot;&gt;in&lt;/span&gt;&lt;span style=&quot;color: #abb2bf;&quot;&gt; &lt;/span&gt;&lt;span style=&quot;color: #e06c75;&quot;&gt;Store&lt;/span&gt;&lt;span style=&quot;color: #abb2bf;&quot;&gt;:&lt;/span&gt;&lt;/div&gt;&lt;div style=&quot;line-height: 143%;&quot;&gt;&lt;span style=&quot;color: #e06c75;&quot;&gt;To&lt;/span&gt;&lt;span style=&quot;color: #abb2bf;&quot;&gt; &lt;/span&gt;&lt;span style=&quot;color: #e06c75;&quot;&gt;use&lt;/span&gt;&lt;span style=&quot;color: #abb2bf;&quot;&gt; &lt;/span&gt;&lt;span style=&quot;color: #e06c75;&quot;&gt;the&lt;/span&gt;&lt;span style=&quot;color: #abb2bf;&quot;&gt; &lt;/span&gt;&lt;span style=&quot;color: #e06c75;&quot;&gt;slice&lt;/span&gt;&lt;span style=&quot;color: #98c379;&quot;&gt;'s reducer in your Redux store, you'&lt;/span&gt;&lt;span style=&quot;color: #e06c75;&quot;&gt;d&lt;/span&gt;&lt;span style=&quot;color: #abb2bf;&quot;&gt; &lt;/span&gt;&lt;span style=&quot;color: #e06c75;&quot;&gt;integrate&lt;/span&gt;&lt;span style=&quot;color: #abb2bf;&quot;&gt; &lt;/span&gt;&lt;span style=&quot;color: #e06c75;&quot;&gt;it&lt;/span&gt;&lt;span style=&quot;color: #abb2bf;&quot;&gt; &lt;/span&gt;&lt;span style=&quot;color: #e06c75;&quot;&gt;like&lt;/span&gt;&lt;span style=&quot;color: #abb2bf;&quot;&gt; &lt;/span&gt;&lt;span style=&quot;color: #e06c75;&quot;&gt;this&lt;/span&gt;&lt;span style=&quot;color: #abb2bf;&quot;&gt;:&lt;/span&gt;&lt;/div&gt;&lt;div style=&quot;line-height: 143%;&quot;&gt;&lt;span style=&quot;color: #e06c75;&quot;&gt;//javascript&lt;/span&gt;&lt;/div&gt;&lt;div style=&quot;line-height: 143%;&quot;&gt;&lt;br&gt;&lt;/div&gt;&lt;div style=&quot;line-height: 143%;&quot;&gt;&lt;br&gt;&lt;/div&gt;&lt;div style=&quot;line-height: 143%;&quot;&gt;&lt;span style=&quot;color: #c678dd;&quot;&gt;import&lt;/span&gt;&lt;span style=&quot;color: #abb2bf;&quot;&gt; { &lt;/span&gt;&lt;span style=&quot;color: #e06c75;&quot;&gt;configureStore&lt;/span&gt;&lt;span style=&quot;color: #abb2bf;&quot;&gt; } &lt;/span&gt;&lt;span style=&quot;color: #c678dd;&quot;&gt;from&lt;/span&gt;&lt;span style=&quot;color: #abb2bf;&quot;&gt; &lt;/span&gt;&lt;span style=&quot;color: #98c379;&quot;&gt;'@reduxjs/toolkit'&lt;/span&gt;&lt;span style=&quot;color: #abb2bf;&quot;&gt;;&lt;/span&gt;&lt;/div&gt;&lt;div style=&quot;line-height: 143%;&quot;&gt;&lt;span style=&quot;color: #c678dd;&quot;&gt;import&lt;/span&gt;&lt;span style=&quot;color: #abb2bf;&quot;&gt; &lt;/span&gt;&lt;span style=&quot;color: #e06c75;&quot;&gt;counterReducer&lt;/span&gt;&lt;span style=&quot;color: #abb2bf;&quot;&gt; &lt;/span&gt;&lt;span style=&quot;color: #c678dd;&quot;&gt;from&lt;/span&gt;&lt;span style=&quot;color: #abb2bf;&quot;&gt; &lt;/span&gt;&lt;span style=&quot;color: #98c379;&quot;&gt;'./counterSlice'&lt;/span&gt;&lt;span style=&quot;color: #abb2bf;&quot;&gt;;&lt;/span&gt;&lt;/div&gt;&lt;br&gt;&lt;div style=&quot;line-height: 143%;&quot;&gt;&lt;span style=&quot;color: #c678dd;&quot;&gt;const&lt;/span&gt;&lt;span style=&quot;color: #abb2bf;&quot;&gt; &lt;/span&gt;&lt;span style=&quot;color: #e5c07b;&quot;&gt;store&lt;/span&gt;&lt;span style=&quot;color: #abb2bf;&quot;&gt; &lt;/span&gt;&lt;span style=&quot;color: #56b6c2;&quot;&gt;=&lt;/span&gt;&lt;span style=&quot;color: #abb2bf;&quot;&gt; &lt;/span&gt;&lt;span style=&quot;color: #61afef;font-weight: bold;&quot;&gt;configureStore&lt;/span&gt;&lt;span style=&quot;color: #abb2bf;&quot;&gt;({&lt;/span&gt;&lt;/div&gt;&lt;div style=&quot;line-height: 143%;&quot;&gt;&lt;span style=&quot;color: #abb2bf;&quot;&gt;&amp;nbsp; &lt;/span&gt;&lt;span style=&quot;color: #e06c75;&quot;&gt;reducer&lt;/span&gt;&lt;span style=&quot;color: #abb2bf;&quot;&gt;: {&lt;/span&gt;&lt;/div&gt;&lt;div style=&quot;line-height: 143%;&quot;&gt;&lt;span style=&quot;color: #abb2bf;&quot;&gt;&amp;nbsp; &amp;nbsp; &lt;/span&gt;&lt;span style=&quot;color: #e06c75;&quot;&gt;counter&lt;/span&gt;&lt;span style=&quot;color: #abb2bf;&quot;&gt;: &lt;/span&gt;&lt;span style=&quot;color: #e06c75;&quot;&gt;counterReducer&lt;/span&gt;&lt;span style=&quot;color: #abb2bf;&quot;&gt;,&lt;/span&gt;&lt;/div&gt;&lt;div style=&quot;line-height: 143%;&quot;&gt;&lt;span style=&quot;color: #abb2bf;&quot;&gt;&amp;nbsp; },&lt;/span&gt;&lt;/div&gt;&lt;div style=&quot;line-height: 143%;&quot;&gt;&lt;span style=&quot;color: #abb2bf;&quot;&gt;});&lt;/span&gt;&lt;/div&gt;&lt;br&gt;&lt;div style=&quot;line-height: 143%;&quot;&gt;&lt;span style=&quot;color: #c678dd;&quot;&gt;export&lt;/span&gt;&lt;span style=&quot;color: #abb2bf;&quot;&gt; &lt;/span&gt;&lt;span style=&quot;color: #c678dd;&quot;&gt;default&lt;/span&gt;&lt;span style=&quot;color: #abb2bf;&quot;&gt; &lt;/span&gt;&lt;span style=&quot;color: #e5c07b;&quot;&gt;store&lt;/span&gt;&lt;span style=&quot;color: #abb2bf;&quot;&gt;;&lt;/span&gt;&lt;/div&gt;&lt;br&gt;&lt;/div&gt;" style="text;whiteSpace=wrap;html=1;fontSize=30;fontColor=#FFFFFF;" vertex="1" parent="1">
                    <mxGeometry x="2829" y="1326" width="2005.67" height="961.33" as="geometry"/>
                </mxCell>
                <mxCell id="97" value="&lt;div style=&quot;color: rgb(171, 178, 191); background-color: rgb(40, 44, 52); font-family: Consolas, &amp;quot;Courier New&amp;quot;, monospace; font-weight: normal; font-size: 30px; line-height: 137%;&quot;&gt;&lt;br&gt;&lt;div style=&quot;line-height: 137%;&quot;&gt;&lt;span style=&quot;color: #e06c75;&quot;&gt;How&lt;/span&gt;&lt;span style=&quot;color: #abb2bf;&quot;&gt; &lt;/span&gt;&lt;span style=&quot;color: #e06c75;&quot;&gt;to&lt;/span&gt;&lt;span style=&quot;color: #abb2bf;&quot;&gt; &lt;/span&gt;&lt;span style=&quot;color: #e06c75;&quot;&gt;Dispatch&lt;/span&gt;&lt;span style=&quot;color: #abb2bf;&quot;&gt; &lt;/span&gt;&lt;span style=&quot;color: #e06c75;&quot;&gt;Actions&lt;/span&gt;&lt;span style=&quot;color: #abb2bf;&quot;&gt;:&lt;/span&gt;&lt;/div&gt;&lt;br&gt;&lt;div style=&quot;line-height: 137%;&quot;&gt;&lt;span style=&quot;color: #c678dd;&quot;&gt;import&lt;/span&gt;&lt;span style=&quot;color: #abb2bf;&quot;&gt; &lt;/span&gt;&lt;span style=&quot;color: #e06c75;&quot;&gt;React&lt;/span&gt;&lt;span style=&quot;color: #abb2bf;&quot;&gt; &lt;/span&gt;&lt;span style=&quot;color: #c678dd;&quot;&gt;from&lt;/span&gt;&lt;span style=&quot;color: #abb2bf;&quot;&gt; &lt;/span&gt;&lt;span style=&quot;color: #98c379;&quot;&gt;'react'&lt;/span&gt;&lt;span style=&quot;color: #abb2bf;&quot;&gt;;&lt;/span&gt;&lt;/div&gt;&lt;div style=&quot;line-height: 137%;&quot;&gt;&lt;span style=&quot;color: #c678dd;&quot;&gt;import&lt;/span&gt;&lt;span style=&quot;color: #abb2bf;&quot;&gt; { &lt;/span&gt;&lt;span style=&quot;color: #e06c75;&quot;&gt;useSelector&lt;/span&gt;&lt;span style=&quot;color: #abb2bf;&quot;&gt;, &lt;/span&gt;&lt;span style=&quot;color: #e06c75;&quot;&gt;useDispatch&lt;/span&gt;&lt;span style=&quot;color: #abb2bf;&quot;&gt; } &lt;/span&gt;&lt;span style=&quot;color: #c678dd;&quot;&gt;from&lt;/span&gt;&lt;span style=&quot;color: #abb2bf;&quot;&gt; &lt;/span&gt;&lt;span style=&quot;color: #98c379;&quot;&gt;'react-redux'&lt;/span&gt;&lt;span style=&quot;color: #abb2bf;&quot;&gt;;&lt;/span&gt;&lt;/div&gt;&lt;div style=&quot;line-height: 137%;&quot;&gt;&lt;span style=&quot;color: #c678dd;&quot;&gt;import&lt;/span&gt;&lt;span style=&quot;color: #abb2bf;&quot;&gt; { &lt;/span&gt;&lt;span style=&quot;color: #e06c75;&quot;&gt;increment&lt;/span&gt;&lt;span style=&quot;color: #abb2bf;&quot;&gt;, &lt;/span&gt;&lt;span style=&quot;color: #e06c75;&quot;&gt;decrement&lt;/span&gt;&lt;span style=&quot;color: #abb2bf;&quot;&gt;, &lt;/span&gt;&lt;span style=&quot;color: #e06c75;&quot;&gt;incrementByAmount&lt;/span&gt;&lt;span style=&quot;color: #abb2bf;&quot;&gt; } &lt;/span&gt;&lt;span style=&quot;color: #c678dd;&quot;&gt;from&lt;/span&gt;&lt;span style=&quot;color: #abb2bf;&quot;&gt; &lt;/span&gt;&lt;span style=&quot;color: #98c379;&quot;&gt;'./counterSlice'&lt;/span&gt;&lt;span style=&quot;color: #abb2bf;&quot;&gt;;&lt;/span&gt;&lt;/div&gt;&lt;br&gt;&lt;div style=&quot;line-height: 137%;&quot;&gt;&lt;span style=&quot;color: #c678dd;&quot;&gt;function&lt;/span&gt;&lt;span style=&quot;color: #abb2bf;&quot;&gt; &lt;/span&gt;&lt;span style=&quot;color: #61afef;font-weight: bold;&quot;&gt;CounterComponent&lt;/span&gt;&lt;span style=&quot;color: #abb2bf;&quot;&gt;() {&lt;/span&gt;&lt;/div&gt;&lt;div style=&quot;line-height: 137%;&quot;&gt;&lt;span style=&quot;color: #abb2bf;&quot;&gt;&amp;nbsp; &lt;/span&gt;&lt;span style=&quot;color: #c678dd;&quot;&gt;const&lt;/span&gt;&lt;span style=&quot;color: #abb2bf;&quot;&gt; &lt;/span&gt;&lt;span style=&quot;color: #e5c07b;&quot;&gt;count&lt;/span&gt;&lt;span style=&quot;color: #abb2bf;&quot;&gt; &lt;/span&gt;&lt;span style=&quot;color: #56b6c2;&quot;&gt;=&lt;/span&gt;&lt;span style=&quot;color: #abb2bf;&quot;&gt; &lt;/span&gt;&lt;span style=&quot;color: #61afef;font-weight: bold;&quot;&gt;useSelector&lt;/span&gt;&lt;span style=&quot;color: #abb2bf;&quot;&gt;((&lt;/span&gt;&lt;span style=&quot;color: #e06c75;&quot;&gt;state&lt;/span&gt;&lt;span style=&quot;color: #abb2bf;&quot;&gt;) &lt;/span&gt;&lt;span style=&quot;color: #c678dd;&quot;&gt;=&amp;gt;&lt;/span&gt;&lt;span style=&quot;color: #abb2bf;&quot;&gt; &lt;/span&gt;&lt;span style=&quot;color: #e06c75;&quot;&gt;state&lt;/span&gt;&lt;span style=&quot;color: #abb2bf;&quot;&gt;.&lt;/span&gt;&lt;span style=&quot;color: #e5c07b;&quot;&gt;counter&lt;/span&gt;&lt;span style=&quot;color: #abb2bf;&quot;&gt;.&lt;/span&gt;&lt;span style=&quot;color: #e06c75;&quot;&gt;value&lt;/span&gt;&lt;span style=&quot;color: #abb2bf;&quot;&gt;); &amp;nbsp;&lt;/span&gt;&lt;span style=&quot;color: #7f848e;&quot;&gt;// Access the state value&lt;/span&gt;&lt;/div&gt;&lt;div style=&quot;line-height: 137%;&quot;&gt;&lt;span style=&quot;color: #abb2bf;&quot;&gt;&amp;nbsp; &lt;/span&gt;&lt;span style=&quot;color: #c678dd;&quot;&gt;const&lt;/span&gt;&lt;span style=&quot;color: #abb2bf;&quot;&gt; &lt;/span&gt;&lt;span style=&quot;color: #61afef;font-weight: bold;&quot;&gt;dispatch&lt;/span&gt;&lt;span style=&quot;color: #abb2bf;&quot;&gt; &lt;/span&gt;&lt;span style=&quot;color: #56b6c2;&quot;&gt;=&lt;/span&gt;&lt;span style=&quot;color: #abb2bf;&quot;&gt; &lt;/span&gt;&lt;span style=&quot;color: #61afef;font-weight: bold;&quot;&gt;useDispatch&lt;/span&gt;&lt;span style=&quot;color: #abb2bf;&quot;&gt;(); &amp;nbsp;&lt;/span&gt;&lt;span style=&quot;color: #7f848e;&quot;&gt;// Used to dispatch actions&lt;/span&gt;&lt;/div&gt;&lt;br&gt;&lt;div style=&quot;line-height: 137%;&quot;&gt;&lt;span style=&quot;color: #abb2bf;&quot;&gt;&amp;nbsp; &lt;/span&gt;&lt;span style=&quot;color: #c678dd;&quot;&gt;return&lt;/span&gt;&lt;span style=&quot;color: #abb2bf;&quot;&gt; (&lt;/span&gt;&lt;/div&gt;&lt;div style=&quot;line-height: 137%;&quot;&gt;&lt;span style=&quot;color: #abb2bf;&quot;&gt;&amp;nbsp; &amp;nbsp; &lt;/span&gt;&lt;span style=&quot;color: #abb2bf;&quot;&gt;&amp;lt;&lt;/span&gt;&lt;span style=&quot;color: #e06c75;&quot;&gt;div&lt;/span&gt;&lt;span style=&quot;color: #abb2bf;&quot;&gt;&amp;gt;&lt;/span&gt;&lt;/div&gt;&lt;div style=&quot;line-height: 137%;&quot;&gt;&lt;span style=&quot;color: #abb2bf;&quot;&gt;&amp;nbsp; &amp;nbsp; &amp;nbsp; &amp;lt;&lt;/span&gt;&lt;span style=&quot;color: #e06c75;&quot;&gt;p&lt;/span&gt;&lt;span style=&quot;color: #abb2bf;&quot;&gt;&amp;gt;&lt;/span&gt;&lt;span style=&quot;color: #c678dd;&quot;&gt;{&lt;/span&gt;&lt;span style=&quot;color: #e5c07b;&quot;&gt;count&lt;/span&gt;&lt;span style=&quot;color: #c678dd;&quot;&gt;}&lt;/span&gt;&lt;span style=&quot;color: #abb2bf;&quot;&gt;&amp;lt;/&lt;/span&gt;&lt;span style=&quot;color: #e06c75;&quot;&gt;p&lt;/span&gt;&lt;span style=&quot;color: #abb2bf;&quot;&gt;&amp;gt;&lt;/span&gt;&lt;/div&gt;&lt;div style=&quot;line-height: 137%;&quot;&gt;&lt;span style=&quot;color: #abb2bf;&quot;&gt;&amp;nbsp; &amp;nbsp; &amp;nbsp; &amp;lt;&lt;/span&gt;&lt;span style=&quot;color: #e06c75;&quot;&gt;button&lt;/span&gt;&lt;span style=&quot;color: #abb2bf;&quot;&gt; &lt;/span&gt;&lt;span style=&quot;color: #d19a66;&quot;&gt;onClick&lt;/span&gt;&lt;span style=&quot;color: #56b6c2;&quot;&gt;=&lt;/span&gt;&lt;span style=&quot;color: #c678dd;&quot;&gt;{&lt;/span&gt;&lt;span style=&quot;color: #abb2bf;&quot;&gt;() &lt;/span&gt;&lt;span style=&quot;color: #c678dd;&quot;&gt;=&amp;gt;&lt;/span&gt;&lt;span style=&quot;color: #abb2bf;&quot;&gt; &lt;/span&gt;&lt;span style=&quot;color: #61afef;font-weight: bold;&quot;&gt;dispatch&lt;/span&gt;&lt;span style=&quot;color: #abb2bf;&quot;&gt;(&lt;/span&gt;&lt;span style=&quot;color: #61afef;font-weight: bold;&quot;&gt;increment&lt;/span&gt;&lt;span style=&quot;color: #abb2bf;&quot;&gt;())&lt;/span&gt;&lt;span style=&quot;color: #c678dd;&quot;&gt;}&lt;/span&gt;&lt;span style=&quot;color: #abb2bf;&quot;&gt;&amp;gt;Increment&amp;lt;/&lt;/span&gt;&lt;span style=&quot;color: #e06c75;&quot;&gt;button&lt;/span&gt;&lt;span style=&quot;color: #abb2bf;&quot;&gt;&amp;gt;&lt;/span&gt;&lt;/div&gt;&lt;div style=&quot;line-height: 137%;&quot;&gt;&lt;span style=&quot;color: #abb2bf;&quot;&gt;&amp;nbsp; &amp;nbsp; &amp;nbsp; &amp;lt;&lt;/span&gt;&lt;span style=&quot;color: #e06c75;&quot;&gt;button&lt;/span&gt;&lt;span style=&quot;color: #abb2bf;&quot;&gt; &lt;/span&gt;&lt;span style=&quot;color: #d19a66;&quot;&gt;onClick&lt;/span&gt;&lt;span style=&quot;color: #56b6c2;&quot;&gt;=&lt;/span&gt;&lt;span style=&quot;color: #c678dd;&quot;&gt;{&lt;/span&gt;&lt;span style=&quot;color: #abb2bf;&quot;&gt;() &lt;/span&gt;&lt;span style=&quot;color: #c678dd;&quot;&gt;=&amp;gt;&lt;/span&gt;&lt;span style=&quot;color: #abb2bf;&quot;&gt; &lt;/span&gt;&lt;span style=&quot;color: #61afef;font-weight: bold;&quot;&gt;dispatch&lt;/span&gt;&lt;span style=&quot;color: #abb2bf;&quot;&gt;(&lt;/span&gt;&lt;span style=&quot;color: #61afef;font-weight: bold;&quot;&gt;decrement&lt;/span&gt;&lt;span style=&quot;color: #abb2bf;&quot;&gt;())&lt;/span&gt;&lt;span style=&quot;color: #c678dd;&quot;&gt;}&lt;/span&gt;&lt;span style=&quot;color: #abb2bf;&quot;&gt;&amp;gt;Decrement&amp;lt;/&lt;/span&gt;&lt;span style=&quot;color: #e06c75;&quot;&gt;button&lt;/span&gt;&lt;span style=&quot;color: #abb2bf;&quot;&gt;&amp;gt;&lt;/span&gt;&lt;/div&gt;&lt;div style=&quot;line-height: 137%;&quot;&gt;&lt;span style=&quot;color: #abb2bf;&quot;&gt;&amp;nbsp; &amp;nbsp; &amp;nbsp; &amp;lt;&lt;/span&gt;&lt;span style=&quot;color: #e06c75;&quot;&gt;button&lt;/span&gt;&lt;span style=&quot;color: #abb2bf;&quot;&gt; &lt;/span&gt;&lt;span style=&quot;color: #d19a66;&quot;&gt;onClick&lt;/span&gt;&lt;span style=&quot;color: #56b6c2;&quot;&gt;=&lt;/span&gt;&lt;span style=&quot;color: #c678dd;&quot;&gt;{&lt;/span&gt;&lt;span style=&quot;color: #abb2bf;&quot;&gt;() &lt;/span&gt;&lt;span style=&quot;color: #c678dd;&quot;&gt;=&amp;gt;&lt;/span&gt;&lt;span style=&quot;color: #abb2bf;&quot;&gt; &lt;/span&gt;&lt;span style=&quot;color: #61afef;font-weight: bold;&quot;&gt;dispatch&lt;/span&gt;&lt;span style=&quot;color: #abb2bf;&quot;&gt;(&lt;/span&gt;&lt;span style=&quot;color: #61afef;font-weight: bold;&quot;&gt;incrementByAmount&lt;/span&gt;&lt;span style=&quot;color: #abb2bf;&quot;&gt;(&lt;/span&gt;&lt;span style=&quot;color: #d19a66;&quot;&gt;5&lt;/span&gt;&lt;span style=&quot;color: #abb2bf;&quot;&gt;))&lt;/span&gt;&lt;span style=&quot;color: #c678dd;&quot;&gt;}&lt;/span&gt;&lt;span style=&quot;color: #abb2bf;&quot;&gt;&amp;gt;Increment by 5&amp;lt;/&lt;/span&gt;&lt;span style=&quot;color: #e06c75;&quot;&gt;button&lt;/span&gt;&lt;span style=&quot;color: #abb2bf;&quot;&gt;&amp;gt;&lt;/span&gt;&lt;/div&gt;&lt;div style=&quot;line-height: 137%;&quot;&gt;&lt;span style=&quot;color: #abb2bf;&quot;&gt;&amp;nbsp; &amp;nbsp; &amp;lt;/&lt;/span&gt;&lt;span style=&quot;color: #e06c75;&quot;&gt;div&lt;/span&gt;&lt;span style=&quot;color: #abb2bf;&quot;&gt;&amp;gt;&lt;/span&gt;&lt;/div&gt;&lt;div style=&quot;line-height: 137%;&quot;&gt;&lt;span style=&quot;color: #abb2bf;&quot;&gt;&amp;nbsp; );&lt;/span&gt;&lt;/div&gt;&lt;div style=&quot;line-height: 137%;&quot;&gt;&lt;span style=&quot;color: #abb2bf;&quot;&gt;}&lt;/span&gt;&lt;/div&gt;&lt;br&gt;&lt;div style=&quot;line-height: 137%;&quot;&gt;&lt;span style=&quot;color: #c678dd;&quot;&gt;export&lt;/span&gt;&lt;span style=&quot;color: #abb2bf;&quot;&gt; &lt;/span&gt;&lt;span style=&quot;color: #c678dd;&quot;&gt;default&lt;/span&gt;&lt;span style=&quot;color: #abb2bf;&quot;&gt; &lt;/span&gt;&lt;span style=&quot;color: #61afef;font-weight: bold;&quot;&gt;CounterComponent&lt;/span&gt;&lt;span style=&quot;color: #abb2bf;&quot;&gt;;&lt;/span&gt;&lt;/div&gt;&lt;/div&gt;" style="text;whiteSpace=wrap;html=1;fontSize=37;fontColor=#FFFFFF;" vertex="1" parent="1">
                    <mxGeometry x="2829" y="2234" width="1713" height="1029" as="geometry"/>
                </mxCell>
            </root>
        </mxGraphModel>
    </diagram>
</mxfile>